<?xml version="1.0" standalone="no"?>
<!DOCTYPE svg PUBLIC "-//W3C//DTD SVG 20010904//EN"
 "http://www.w3.org/TR/2001/REC-SVG-20010904/DTD/svg10.dtd">
<svg version="1.0" xmlns="http://www.w3.org/2000/svg"
 width="700.000000pt" height="700.000000pt" viewBox="0 0 700.000000 700.000000"
 preserveAspectRatio="xMidYMid meet">
<metadata>
Created by potrace 1.14, written by Peter Selinger 2001-2017
</metadata>
<g transform="translate(0.000000,700.000000) scale(0.100000,-0.100000)"
fill="#000000" stroke="none">
<path d="M2189 6176 c-2 -2 -29 -6 -59 -9 -57 -6 -79 -10 -170 -29 -30 -6 -59
-12 -65 -14 -78 -16 -278 -94 -373 -146 -399 -217 -668 -540 -783 -940 -43
-151 -52 -275 -51 -701 1 -133 12 -164 72 -204 28 -20 47 -23 129 -24 267 -3
451 -44 631 -141 133 -71 240 -170 325 -303 105 -164 158 -321 199 -595 26
-171 27 -867 1 -1010 -2 -14 -7 -45 -10 -70 -3 -25 -8 -53 -11 -62 -3 -9 -6
-25 -8 -35 -14 -71 -49 -199 -69 -255 -41 -110 -28 -177 45 -231 35 -26 93
-26 195 1 139 37 233 71 351 128 523 249 897 731 1007 1298 13 66 27 157 31
201 3 44 6 742 6 1551 1 1380 -1 1473 -17 1508 -10 20 -32 46 -49 59 l-31 22
-646 2 c-356 1 -648 1 -650 -1z m18 -701 c143 -60 177 -233 67 -341 -81 -78
-204 -79 -284 -1 -68 66 -83 171 -36 251 29 49 40 60 91 85 48 23 115 26 162
6z"/>
<path d="M3816 6145 c-23 -11 -49 -35 -61 -55 -19 -34 -20 -51 -19 -670 0
-710 -4 -675 71 -722 l38 -23 1170 0 1170 1 41 21 c22 12 53 41 70 64 28 41
29 46 29 153 -1 128 -7 179 -36 295 -112 446 -464 764 -994 895 -55 13 -122
27 -150 31 -27 3 -57 8 -65 10 -52 13 -237 18 -699 20 -511 1 -526 0 -565 -20z"/>
<path d="M3890 4519 c-63 -7 -105 -33 -138 -81 l-27 -42 -2 -345 c-1 -375 0
-387 54 -443 47 -49 70 -52 463 -51 201 0 397 3 435 6 105 10 191 22 225 32 8
2 30 7 48 10 18 3 77 19 130 36 317 101 536 296 643 573 47 123 39 198 -29
261 -15 14 -42 30 -60 36 -35 11 -1653 19 -1742 8z"/>
<path d="M704 3963 l-21 -4 0 -1583 0 -1584 86 3 c234 8 433 87 621 244 212
179 360 422 460 756 11 39 47 217 54 275 20 152 27 589 13 820 -8 125 -31 291
-52 375 -8 33 -17 68 -20 77 -13 53 -79 196 -118 255 -132 198 -314 308 -592
355 -57 10 -388 18 -431 11z"/>
</g>
</svg>
