<svg version="1.2" baseProfile="tiny-ps" xmlns="http://www.w3.org/2000/svg" viewBox="0 0 1500 1500" width="1500" height="1500">
	<title>5138232-ai</title>
	<style>
		tspan { white-space:pre }
		.s0 { fill: #dff3fc } 
		.s1 { fill: #a2c7eb } 
		.s2 { fill: none;stroke: #a2c7eb;stroke-width: 3 } 
		.s3 { fill: #0097d8;stroke: #0097d8;stroke-width: 3 } 
		.s4 { fill: #ffffff } 
		.s5 { fill: #0097d8 } 
		.s6 { fill: none;stroke: #6f8bbf;stroke-linecap:round;stroke-width: 3 } 
		.s7 { fill: #e06a58 } 
		.s8 { fill: #f2ae30 } 
		.s9 { fill: #0a2240 } 
		.s10 { fill: #f9a07b } 
		.s11 { fill: #ffc73c } 
		.s12 { fill: #ffbb33 } 
		.s13 { fill: #fce172 } 
		.s14 { fill: #325f73 } 
		.s15 { fill: #0b2d50 } 
		.s16 { fill: #3c738c } 
		.s17 { fill: #56c4f9 } 
		.s18 { fill: #225570 } 
		.s19 { fill: none;stroke: #0b2d50;stroke-linecap:round;stroke-width: 6 } 
		.s20 { fill: none;stroke: #cc454e;stroke-linecap:round;stroke-width: 6 } 
		.s21 { fill: #262d40 } 
		.s22 { fill: #cc454e } 
		.s23 { fill: #e8729b } 
		.s24 { fill: #3d86e0 } 
		.s25 { fill: #3a92c9 } 
		.s26 { fill: none;stroke: #3a92c9;stroke-linecap:round;stroke-width: 6 } 
		.s27 { fill: none;stroke: #cc454e;stroke-linecap:round;stroke-width: 3 } 
		.s28 { fill: none;stroke: #f2ae30;stroke-linecap:round;stroke-width: 3 } 
	</style>
	<g id="OBJECTS">
		<g id="&lt;Group&gt;">
			<g id="&lt;Group&gt;">
				<path id="&lt;Path&gt;" class="s0" d="m295.47 1221.13c-140.82-91.29-209.73-224.7-193.53-419.13c16.53-198.54 110.49-373.23 246.03-435.21c255.84-117.03 287.19 120.81 497.52 199.53c172.29 64.5 267.54 8.88 420.69 106.38c231.33 147.3 167.88 447.69 25.41 556.02c-334.08 3.93-665.43 6.48-996.12-7.59z" />
				<path id="&lt;Path&gt;" class="s0" d="m831.16 258.27c59.89-12.33 124.6 6.99 170.67 45.96c24.93 21.12 45.27 47.79 73.94 63.9c30.23 16.98 66.28 20.28 100.21 28.35c33.94 8.07 69.53 23.79 84.16 54.48c16.57 34.8-0.96 77.88-31.19 102.69c-30.23 24.81-70.24 35.07-109.15 42.36c-90.19 16.92-186.73 21.15-270.92-14.34c-84.19-35.46-164.1-120.99-142.58-207.39c18.29-73.44 64.94-103.68 124.86-116.01z" />
			</g>
			<g id="&lt;Group&gt;">
				<g id="&lt;Group&gt;">
					<g id="&lt;Group&gt;">
						<path id="&lt;Compound Path&gt;" fill-rule="evenodd" class="s1" d="m1326.1 771.68c-2.98 11.43-7.51 22.2-13.33 32.13l17.52 17.55l-46.22 46.22l-17.55-17.52c-9.92 5.81-20.7 10.32-32.13 13.33v24.78h-65.36v-24.78c-11.43-3.01-22.2-7.52-32.13-13.33l-17.55 17.52l-46.22-46.22l17.52-17.55c-5.81-9.93-10.32-20.7-13.33-32.13h-24.78v-65.36h24.78c3.01-11.43 7.51-22.2 13.33-32.13l-17.52-17.55l46.22-46.22l17.55 17.52c9.93-5.81 20.7-10.35 32.13-13.33v-24.78h65.36v24.78c11.43 2.98 22.2 7.51 32.13 13.33l17.55-17.52l46.22 46.22l-17.52 17.55c5.81 9.92 10.35 20.7 13.33 32.13h24.78v65.36h-24.78zm-67.76-32.7c0-31.25-25.36-56.61-56.61-56.61c-31.28 0-56.65 25.36-56.65 56.61c0 31.28 25.36 56.65 56.65 56.65c31.25 0 56.61-25.36 56.61-56.65z" />
						<path id="&lt;Compound Path&gt;" fill-rule="evenodd" class="s2" d="m1141.07 940.17c0.7 6.23 0.5 12.44-0.5 18.47l12.03 5.37l-14.13 31.72l-12.04-5.35c-3.82 4.77-8.3 9.06-13.4 12.72l4.72 12.29l-32.42 12.44l-4.72-12.29c-6.24 0.68-12.44 0.5-18.47-0.5l-5.37 12.03l-31.72-14.13l5.35-12.04c-4.77-3.82-9.06-8.3-12.72-13.4l-12.29 4.72l-12.44-32.42l12.29-4.72c-0.68-6.24-0.5-12.44 0.5-18.47l-12.03-5.37l14.13-31.72l12.04 5.35c3.82-4.77 8.3-9.07 13.4-12.72l-4.72-12.29l32.42-12.44l4.72 12.29c6.23-0.7 12.44-0.5 18.47 0.5l5.37-12.03l31.72 14.13l-5.35 12.04c4.77 3.82 9.07 8.3 12.72 13.4l12.29-4.72l12.44 32.42l-12.29 4.72zm-39.82-3.32c-5.95-15.5-23.35-23.25-38.85-17.31c-15.51 5.95-23.27 23.36-17.32 38.85c5.95 15.51 23.36 23.27 38.87 17.32c15.5-5.95 23.25-23.35 17.3-38.86z" />
						<path id="&lt;Compound Path&gt;" fill-rule="evenodd" class="s2" d="m1038.85 824.94c0.47 4.21 0.34 8.41-0.34 12.48l8.13 3.63l-9.55 21.43l-8.13-3.62c-2.58 3.22-5.61 6.12-9.05 8.6l3.19 8.3l-21.9 8.4l-3.19-8.3c-4.22 0.46-8.41 0.34-12.48-0.34l-3.63 8.13l-21.43-9.55l3.62-8.13c-3.22-2.58-6.12-5.61-8.6-9.05l-8.3 3.19l-8.4-21.9l8.3-3.19c-0.46-4.22-0.34-8.41 0.34-12.48l-8.13-3.63l9.55-21.43l8.13 3.62c2.58-3.22 5.61-6.13 9.05-8.6l-3.19-8.31l21.9-8.4l3.19 8.31c4.21-0.47 8.41-0.34 12.48 0.34l3.63-8.13l21.43 9.55l-3.62 8.13c3.22 2.58 6.13 5.61 8.6 9.05l8.3-3.19l8.4 21.9l-8.3 3.19zm-26.91-2.25c-4.02-10.47-15.78-15.71-26.25-11.69c-10.48 4.02-15.72 15.78-11.7 26.25c4.02 10.48 15.78 15.72 26.26 11.7c10.47-4.02 15.71-15.78 11.69-26.26z" />
					</g>
					<g id="&lt;Group&gt;">
						<path id="&lt;Path&gt;" class="s3" d="m1039.53 438.26c0 32.84-15.35 62.12-39.23 81.04c-17.59 13.96-39.82 22.24-64.04 22.24c-24.16 0-46.4-8.28-64.04-22.24c-23.91-18.92-39.23-48.2-39.23-81.04c0-57.04 46.24-103.28 103.28-103.28c57.03 0 103.28 46.24 103.28 103.28z" />
						<g id="&lt;Group&gt;">
							<path id="&lt;Path&gt;" class="s4" d="m936.26 370.47c18.67 0 33.81 15.14 33.81 33.81c0 18.67-15.14 33.81-33.81 33.81c-18.67 0-33.81-15.13-33.81-33.81c0-18.67 15.14-33.81 33.81-33.81z" />
							<path id="&lt;Path&gt;" class="s4" d="m1000.3 506.28c-17.59 13.96-39.82 22.24-64.04 22.24c-24.16 0-46.4-8.28-64.04-22.24c6.61-29.06 12.68-54.15 19.01-60.51c8.93-8.93 32.66-14.14 45-14.14c12.34 0 37.19 6.33 41.78 10.92c9.37 9.34 17.43 35.11 22.3 63.73z" />
						</g>
					</g>
					<g id="&lt;Group&gt;">
						<g id="&lt;Group&gt;">
							<path id="&lt;Path&gt;" class="s5" d="m787.83 692.86v-51c0-13.92 11.28-25.2 25.2-25.2h160.68c13.92 0 25.2 11.28 25.2 25.2v51c0 13.92-11.28 25.2-25.2 25.2h-160.65c-13.92 0.03-25.23-11.28-25.23-25.2z" />
							<path id="&lt;Path&gt;" class="s5" d="m903.96 702.25l-126.03 63.69l77.76-75.75" />
						</g>
						<g id="&lt;Group&gt;">
							<path id="&lt;Path&gt;" class="s4" d="m807.33 640.6v-0.27c0-2.07 1.68-3.75 3.75-3.75h79.44c2.07 0 3.75 1.68 3.75 3.75v0.27c0 2.07-1.68 3.75-3.75 3.75h-79.44c-2.07 0-3.75-1.68-3.75-3.75z" />
							<path id="&lt;Path&gt;" class="s4" d="m897.84 640.6v-0.27c0-2.07 1.68-3.75 3.75-3.75h69.33c2.07 0 3.75 1.68 3.75 3.75v0.27c0 2.07-1.68 3.75-3.75 3.75h-69.33c-2.07 0-3.75-1.68-3.75-3.75z" />
							<path id="&lt;Path&gt;" class="s4" d="m867.57 657.67v-0.27c0-2.07 1.68-3.75 3.75-3.75h99.6c2.07 0 3.75 1.68 3.75 3.75v0.27c0 2.07-1.68 3.75-3.75 3.75h-99.6c-2.07 0-3.75-1.68-3.75-3.75z" />
							<path id="&lt;Path&gt;" class="s4" d="m807.33 657.67v-0.27c0-2.07 1.68-3.75 3.75-3.75h44.49c2.07 0 3.75 1.68 3.75 3.75v0.27c0 2.07-1.68 3.75-3.75 3.75h-44.49c-2.07 0-3.75-1.68-3.75-3.75z" />
							<path id="&lt;Path&gt;" class="s4" d="m881.4 674.74v-0.27c0-2.07 1.68-3.75 3.75-3.75h85.77c2.07 0 3.75 1.68 3.75 3.75v0.27c0 2.07-1.68 3.75-3.75 3.75h-85.77c-2.07 0-3.75-1.68-3.75-3.75z" />
							<path id="&lt;Path&gt;" class="s4" d="m807.33 674.74v-0.27c0-2.07 1.68-3.75 3.75-3.75h59.25c2.07 0 3.75 1.68 3.75 3.75v0.27c0 2.07-1.68 3.75-3.75 3.75h-59.25c-2.07 0-3.75-1.68-3.75-3.75z" />
							<path id="&lt;Path&gt;" class="s4" d="m807.33 691.81v-0.27c0-2.07 1.68-3.75 3.75-3.75h21.99c2.07 0 3.75 1.68 3.75 3.75v0.27c0 2.07-1.68 3.75-3.75 3.75h-21.99c-2.07 0-3.75-1.68-3.75-3.75z" />
							<path id="&lt;Path&gt;" class="s4" d="m844.59 691.81v-0.27c0-2.07 1.68-3.75 3.75-3.75h122.58c2.07 0 3.75 1.68 3.75 3.75v0.27c0 2.07-1.68 3.75-3.75 3.75h-122.58c-2.07 0-3.75-1.68-3.75-3.75z" />
						</g>
					</g>
					<g id="&lt;Group&gt;">
						<g id="&lt;Group&gt;">
							<path id="&lt;Path&gt;" class="s5" d="m265.85 485.85c51.3-19.47 108.68 6.33 128.15 57.64c19.47 51.3-6.33 108.68-57.64 128.15c-51.3 19.47-108.68-6.33-128.15-57.64c-19.47-51.3 6.33-108.68 57.64-128.15z" />
							<g id="&lt;Group&gt;">
								<g id="&lt;Group&gt;">
									<path id="&lt;Path&gt;" class="s4" d="m299.4 637.93c-5.76 11.99-20.14 17.04-32.13 11.28c-11.99-5.76-17.04-20.14-11.28-32.13c5.76-11.99 20.14-17.04 32.13-11.28c11.99 5.76 17.04 20.14 11.28 32.13z" />
									<path id="&lt;Path&gt;" class="s5" d="m265.05 636.15l-1.16-15.27l12.64-8.64l13.81 6.63l1.16 15.27l-12.64 8.64l-13.81-6.63z" />
								</g>
								<g id="&lt;Group&gt;">
									<path id="&lt;Path&gt;" class="s4" d="m346.22 540.4c-5.76 11.99-20.14 17.04-32.13 11.28c-11.99-5.76-17.04-20.14-11.28-32.13c5.76-11.99 20.14-17.04 32.13-11.28c11.99 5.76 17.04 20.14 11.28 32.13z" />
									<path id="&lt;Path&gt;" class="s5" d="m312.57 537.16l0.83-19.42l14.63-12.79l13.81 6.63l-0.83 19.42l-14.63 12.79l-13.81-6.63z" />
								</g>
								<path id="&lt;Path&gt;" class="s4" d="m294.37 616.38l-18.42-8.84l13.61-31.4c0.86-1.99 1.8-3.95 2.82-5.87l15.99-30.26l18.42 8.84l-13.13 30.92c-1.02 2.39-2.14 4.74-3.37 7.02l-15.92 29.58z" />
							</g>
						</g>
						<path id="&lt;Path&gt;" class="s5" d="m389.59 595.43l41.09 37.73c-38.01-1.73-58.19-2.05-60.56-0.95l19.46-36.77z" />
					</g>
					<g id="&lt;Group&gt;">
						<g id="&lt;Group&gt;">
							<g id="&lt;Group&gt;">
								<path id="&lt;Path&gt;" class="s5" d="m531.5 274.31c53.93-0.32 97.92 43.14 98.24 97.07c0.32 53.93-43.14 97.92-97.07 98.24c-53.93 0.32-97.92-43.14-98.24-97.07c-0.32-53.93 43.14-97.92 97.07-98.24z" />
							</g>
						</g>
						<g id="&lt;Group&gt;">
							<path id="&lt;Path&gt;" class="s4" d="m535.35 370.76h-6.52v-82.01h6.52v82.01z" />
							<path id="&lt;Path&gt;" class="s4" d="m528.38 370.76l3.71 5.36l-68.35 47.31l-3.71-5.36l68.35-47.31z" />
							<path id="&lt;Path&gt;" class="s4" d="m541.08 371.97c0 4.96-4.02 8.99-8.99 8.99c-4.96 0-8.99-4.02-8.99-8.99c0-4.96 4.02-8.99 8.99-8.99c4.96 0 8.99 4.02 8.99 8.99z" />
						</g>
					</g>
				</g>
				<g id="&lt;Group&gt;">
					<g id="&lt;Group&gt;">
						<g id="&lt;Group&gt;">
							<g id="&lt;Group&gt;">
								<path id="&lt;Path&gt;" class="s1" d="m797.22 1033.24c-5.79-89.28 33.27-181.68 99.06-234.54c2.04 89.73-36.63 180.54-99.06 234.54z" />
								<path id="&lt;Path&gt;" class="s6" d="m729.21 1180.63c41.46-56.76 60.51-128.7 84.72-196.41c19.92-55.77 43.89-109.83 71.61-161.49" />
							</g>
							<g id="&lt;Group&gt;">
								<path id="&lt;Path&gt;" class="s1" d="m776.46 1089.4c33.3-74.49 99.39-130.77 172.26-146.7c-31.02 79.83-100.8 140.73-172.26 146.7z" />
								<path id="&lt;Path&gt;" class="s6" d="m930.84 959.11c-49.77 43.8-100.38 86.37-151.83 127.68" />
							</g>
							<g id="&lt;Group&gt;">
								<path id="&lt;Path&gt;" class="s1" d="m756.81 1154.29c44.49-66.45 126.57-101.13 194.49-82.17c-49.95 65.61-132.21 100.38-194.49 82.17z" />
								<path id="&lt;Path&gt;" class="s6" d="m935.01 1076.92c-58.32 36.48-121.23 63.42-186.09 79.62" />
							</g>
							<g id="&lt;Group&gt;">
								<path id="&lt;Path&gt;" class="s1" d="m780.84 1066.81c14.22-74.82-7.11-158.22-54.6-213.39c-19.47 73.53-0.9 159.69 54.6 213.39z" />
								<path id="&lt;Path&gt;" class="s6" d="m731.13 872.5c9.36 69.6 26.01 134.79 51.81 198.51" />
							</g>
							<g id="&lt;Group&gt;">
								<path id="&lt;Path&gt;" class="s1" d="m684.63 1057.21c-17.19-35.7-28.02-74.97-31.35-115.71c57.66 39.87 97.08 112.11 103.14 189.03c-22.98-6.3-52.02-32.31-71.79-73.32z" />
								<path id="&lt;Path&gt;" class="s6" d="m661.83 957.07c22.68 64.14 55.32 123.6 96.03 175.08" />
							</g>
						</g>
						<g id="&lt;Group&gt;">
							<g id="&lt;Group&gt;">
								<path id="&lt;Path&gt;" class="s1" d="m1201.71 1112.08c31.47-81.87 103.86-148.29 183.69-168.51c-34.98 80.76-106.38 145.86-183.69 168.51z" />
								<path id="&lt;Path&gt;" class="s6" d="m1081.17 1215.61c59.91-33.66 106.26-89.94 155.4-140.4c40.44-41.55 83.82-79.92 129.48-114.63" />
							</g>
							<g id="&lt;Group&gt;">
								<path id="&lt;Path&gt;" class="s1" d="m1160.34 1153.63c59.97-52.77 141.45-75.93 212.37-60.39c-60.12 58.47-146.76 84.24-212.37 60.39z" />
								<path id="&lt;Path&gt;" class="s6" d="m1350.18 1100.59c-61.95 18.72-124.14 35.97-186.54 51.78" />
							</g>
							<g id="&lt;Group&gt;">
								<path id="&lt;Path&gt;" class="s1" d="m1116.36 1203.43c66.57-41.04 153.33-38.43 205.59 6.18c-71.04 38.04-158.01 35.43-205.59-6.18z" />
								<path id="&lt;Path&gt;" class="s6" d="m1305.6 1207.21c-66.48 8.7-133.17 7.02-197.1-5.01" />
							</g>
							<g id="&lt;Group&gt;">
								<path id="&lt;Path&gt;" class="s1" d="m1173.48 1135.3c43.23-60.84 58.56-143.85 39.21-212.37c-47.37 57.54-66.27 141.87-39.21 212.37z" />
								<path id="&lt;Path&gt;" class="s6" d="m1209.18 941.89c-20.28 65.82-32.25 130.68-35.55 198" />
							</g>
							<g id="&lt;Group&gt;">
								<path id="&lt;Path&gt;" class="s1" d="m1092.39 1087.48c-0.57-38.82 5.97-78.21 19.71-115.86c34.62 59.04 39.84 139.5 13.68 210.48c-17.76-15-32.76-50.04-33.39-94.62z" />
								<path id="&lt;Path&gt;" class="s6" d="m1113.24 988.96c-6.24 66.39-1.77 132.69 13.11 195.15" />
							</g>
						</g>
						<g id="&lt;Group&gt;">
							<path id="&lt;Path&gt;" class="s1" d="m309.8 968.93c-32.08-98.13-121.61-177.41-225.76-199.92c43.79 84.89 123.21 152.46 225.76 199.92z" />
							<path id="&lt;Path&gt;" class="s1" d="m315.23 984.16c-70.27-39.74-158.32-48.5-234.65-23.38c70.8 35.36 154.68 45.22 234.65 23.38z" />
							<path id="&lt;Path&gt;" class="s1" d="m334.67 1005.44c-75.95-10.53-155.49 8.2-217.17 51.11c69.94 25.43 153.86 8.94 217.17-51.11z" />
							<path id="&lt;Path&gt;" class="s1" d="m264.71 1134.18c-30.71 13.91-66.25 17.92-99.73 11.21c44.21-58.04 118.16-93.79 193.37-93.47c-37.21 44.62-62.93 68.36-93.64 82.26z" />
							<path id="&lt;Path&gt;" class="s1" d="m305.03 1195.26c-32.66 8.61-68.4 6.67-100.31-5.45c53.48-49.84 132.5-72.83 206.66-60.11c-44.28 37.82-73.69 56.95-106.34 65.56z" />
							<path id="&lt;Path&gt;" class="s1" d="m331.31 973.58c-48.97-66.01-62.26-154.96-34.44-230.63c21.25 35.98 39.58 74.02 48.13 114.45c8.56 40.43 6.89 83.55-13.69 116.18z" />
							<path id="&lt;Path&gt;" class="s1" d="m361.23 1037.27c-11.6-70.13 12.38-144.46 63.03-195.25c5.83 72.55-16.37 146.47-63.03 195.25z" />
							<g id="&lt;Group&gt;">
								<path id="&lt;Path&gt;" class="s6" d="m106.84 786.6c149.05 95.37 265.62 237.52 327.15 399.02" />
								<path id="&lt;Path&gt;" class="s6" d="m301.5 777.75c18.13 73.62 29.16 148.77 32.89 224.16" />
								<path id="&lt;Path&gt;" class="s6" d="m413.13 870.49c-5.94 59.39-24.29 117.44-53.62 169.73" />
								<path id="&lt;Path&gt;" class="s6" d="m111.96 962.49c68.33 12.99 137.79 20.04 207.26 21.07" />
								<path id="&lt;Path&gt;" class="s6" d="m153.13 1050.71c63.01-4.58 125-19.84 182.3-44.92" />
								<path id="&lt;Path&gt;" class="s6" d="m190.88 1134.8c58.14-29 116.29-58.04 174.43-87.04" />
								<path id="&lt;Path&gt;" class="s6" d="m228.7 1186.01c75.91-14.65 98.46-32.12 182.71-56.31" />
							</g>
						</g>
					</g>
					<g id="&lt;Group&gt;">
						<g id="&lt;Group&gt;">
							<path id="&lt;Path&gt;" class="s7" d="m709.26 1046.98c4.38 40.14 9.02 61.82 13.92 65.04c8.76 5.78 63.84 15.35 165.24 28.71l-4.98 39.57c-138.88 12.48-211.27 15.25-217.17 8.31c-10.24-12.04-24.36-47.1-42.36-105.18l85.35-36.45z" />
							<path id="&lt;Path&gt;" class="s8" d="m608.82 891.97l16.83-40.41c30.44 14.3 50.68 30.28 60.72 47.94c10.74 18.88 22.68 78.51 35.82 178.89c-53.74 12.38-85.55 15.94-95.43 10.68c-9.88-5.26-15.86-70.96-17.94-197.1z" />
						</g>
						<path id="&lt;Path&gt;" class="s9" d="m507.42 721.72c2.7 7.23 3.69 15.12 7.86 21.75c10.08 16.05 35.22 19.68 44.88 35.97c10.02 16.95-2.46 38.61-19.47 49.74c-15.57 10.14-35.34 15.69-46.5 30c-5.4 6.93-8.22 15.27-12.87 22.65c-10.47 16.68-29.82 27.36-50.07 31.68c-20.25 4.32-41.4 2.88-61.89-0.18c-14.88-2.22-30.21-5.55-42-14.31c-11.79-8.79-18.93-24.42-12.96-37.32c4.5-9.69 15.45-16.56 17.16-27c1.62-9.75-5.46-18.69-8.91-28.05c-8.67-23.49 10.17-52.17 36.57-55.68c8.55-1.11 17.22 0.03 25.83-0.57c8.58-0.57 17.76-3.39 22.38-10.17c4.83-7.08 3.42-16.35 6.48-24.21c4.29-11.1 17.19-17.79 29.82-18.75c12.63-0.96 25.11 2.82 36.9 7.14c17.43 6.39 24.03 10.05 26.79 17.31z" />
						<g id="&lt;Group&gt;">
							<path id="&lt;Path&gt;" class="s10" d="m458.07 829c17.7-9.18 28.14-30.51 34.83-52.08c6.27-20.37 9.21-40.92 11.7-51.42c20.4 17.04 55.89 27.12 93.51 35.61c-7.92 22.89-10.05 35.46-12.45 58.02c-0.27 2.7 0.09 5.28 1.11 7.74c1.47 3.33 4.05 6.18 7.47 8.22c3.69 2.16 7.77 4.47 12 6.87c-4.56 22.83-15.81 44.97-32.85 63c-3.3 3.51-7.59 7.14-12.72 6.78c-4.86-0.33-8.37-4.08-11.34-7.5c-25.53-29.22-56.52-54.72-91.26-75.24z" />
							<path id="&lt;Path&gt;" class="s7" d="m585.66 819.16c-0.27 2.7 0.09 5.31 1.11 7.74c-22.26 27-72.03-8.28-93.87-49.95c6.27-20.37 9.21-40.92 11.7-51.42c20.37 17.04 55.89 27.15 93.51 35.61c-7.92 22.89-10.05 35.43-12.45 58.02z" />
						</g>
						<g id="&lt;Group&gt;">
							<path id="&lt;Path&gt;" class="s11" d="m647.64 1145.56c-4.92 32.58 30.24 67.65 31.11 85.05c-74.67 0-231.09 4.56-310.74-6.27c-3.63-20.1 35.7-65.31 35.7-109.95c0-5.91-0.24-12.39-0.72-19.35c-1.26-19.92-4.2-43.62-7.47-67.92c-8.88-65.19-20.7-134.91-11.97-149.37c17.1-28.17 57.09-47.31 76.92-55.53c6.81-2.82 11.25-4.35 11.58-4.53c24.87 42.42 75.48 78.6 94.59 76.98c5.31-0.42 21.06-5.91 31.47-58.32c4.05 2.31 8.1 4.44 12.12 6.51c19.77 10.29 38.31 18.78 43.65 32.01c14.1 34.83 27.93 122.64 24.87 153.87c-3.09 31.5-15.75 55.56-24.63 87.18c-2.07 7.41-3.96 15.27-5.49 23.73c-0.39 1.89-0.69 3.87-0.99 5.91z" />
							<path id="&lt;Path&gt;" class="s12" d="m678.75 1230.61c-74.67 0-231.09 4.56-310.74-6.27c-3.63-20.1 35.7-65.31 35.7-109.95c0-5.91-0.24-12.39-0.72-19.35c-1.26-19.92-4.2-43.62-7.47-67.92c14.13 14.91 34.74-48.09 43.86-29.64c49.35 99.6 88.26 125.79 155.88 125.79c20.16 0 38.76-2.79 58.86-7.35c-2.07 7.41-3.96 15.27-5.49 23.73c-0.36 1.92-0.69 3.9-0.99 5.94c-4.92 32.52 30.24 67.59 31.11 85.02z" />
							<path id="&lt;Path&gt;" class="s13" d="m610.23 842.86c-3.21 23.31-12.72 54.72-40.38 63c-37.38 11.19-91.47-58.65-109.38-83.64c6.81-2.82 11.25-4.35 11.58-4.53c24.87 42.42 75.48 78.6 94.59 76.98c5.31-0.42 21.06-5.91 31.47-58.32c4.05 2.28 8.1 4.41 12.12 6.51z" />
						</g>
						<g id="&lt;Group&gt;">
							<g id="&lt;Group&gt;">
								<g id="&lt;Group&gt;">
									<path id="&lt;Path&gt;" class="s14" d="m1091.28 1194.82l-0.96 29.49l-465-2.76l0.27-26.01l465.69-0.72z" />
								</g>
								<g id="&lt;Group&gt;">
									<path id="&lt;Path&gt;" class="s14" d="m781.77 1203.64l-8.88-7.14l169.92-245.73l338.7 2.22l10.35 10.5l-510.09 240.15z" />
									<path id="&lt;Path&gt;" class="s15" d="m1291.86 963.49l-189.99 241.74l-320.1-1.59l167.58-243.78l342.51 3.63z" />
								</g>
							</g>
							<path id="&lt;Path&gt;" class="s16" d="m1030.23 1078.21c20.58 0 37.26 8.34 37.26 18.63c0 10.29-16.68 18.63-37.26 18.63c-20.58 0-37.26-8.34-37.26-18.63c0-10.29 16.68-18.63 37.26-18.63z" />
						</g>
						<g id="&lt;Group&gt;">
							<g id="&lt;Group&gt;">
								<path id="&lt;Path&gt;" class="s17" d="m632.47 719.2c5.28-28.33 24.7-48.47 43.39-44.98c18.68 3.48 29.55 29.27 24.27 57.59c-5.28 28.33-24.7 48.47-43.39 44.98c-18.68-3.48-29.55-29.27-24.27-57.59z" />
							</g>
							<path id="&lt;Path&gt;" class="s15" d="m700.17 642.91c-3.48 24.66-14.49 51.84-30.54 81.87c-5.64-24.6-9.24-54.57-14.22-84.54c-5.07-30.03-11.52-60.06-22.71-84.6c-2.52-5.43-5.25-10.62-8.22-15.42c6.63-0.63 13.35 0 19.74 1.77c9.99 2.67 19.35 7.83 27 14.73c12.72 11.31 21.24 26.73 26.31 42.99c4.17 13.5 4.92 27.84 2.64 43.2z" />
							<g id="&lt;Group&gt;">
								<path id="&lt;Path&gt;" class="s10" d="m681.33 668.41c-0.18 4.86-0.51 9.81-0.96 14.73c-6.84 79.8-40.35 134.55-91.62 134.55c-72.39 0-119.31-81.18-119.31-160.71c0-78.45 48.06-135.24 104.31-128.67c32.43 3.72 56.13 14.49 72.96 30.27c11.13 10.5 19.17 23.19 24.66 37.62c6.27 16.17 9.3 34.47 9.93 54.18c0 0.06 0.06 0.12 0.06 0.18c0.24 5.82 0.18 11.76-0.03 17.85z" />
								<path id="&lt;Path&gt;" class="s7" d="m681.33 668.41c-2.16-7.71-5.37-15.24-9.75-21.99c-42.69 22.32-93.57 30.93-141.81 22.77c-9.18 7.65-18.15 15.18-27.18 22.71c0.18-36.3 0.69-60.87 14.85-78.45c13.29-16.5 35.46-22.71 56.46-25.41c23.64-3.09 47.67-2.97 71.25 0.45c9.03 1.26 18.39 3.21 26.25 7.77c6.27 16.17 9.3 34.47 9.93 54.18c0 0.06 0.06 0.12 0.06 0.18c0.21 5.76 0.15 11.7-0.06 17.79z" />
							</g>
							<path id="&lt;Path&gt;" class="s15" d="m691.77 619.27c-9.93 8.4-22.38 15.36-36.36 21c-39.78 16.05-91.47 21.36-131.76 19.41c-19.8 43.5-27.81 59.1-32.88 97.05c-19.35-18.15-35.1-51.39-39.78-77.52c-4.62-26.04-4.17-53.37 3.09-78.96c11.43-40.35 40.26-61.95 60.24-72.45c4.98-2.73 9.48-4.62 12.96-6c25.53-9.87 54.3-8.97 80.49-0.96c14.28 4.44 26.31 11.94 36.42 21.18c20.43 18.45 33.06 43.44 41.22 62.16c2.58 5.73 4.65 10.92 6.36 15.09z" />
							<path id="&lt;Path&gt;" class="s18" d="m700.17 642.91c-1.65-8.73-4.11-17.19-7.59-25.35c-1.95-4.62-4.35-9.09-7.14-13.41c-9.09-14.28-22.32-26.04-38.31-31.23c-4.56-6.39-9.36-12.15-14.4-17.25c-18.15-18.45-39.45-29.01-62.01-32.7c-18.78-3.03-38.31-1.32-56.34 4.8c4.98-2.73 9.48-4.62 12.96-6c25.53-9.87 54.3-8.97 80.49-0.96c14.28 4.44 26.31 11.94 36.42 21.18c9.99 2.67 19.35 7.83 27 14.73c12.72 11.31 21.24 26.73 26.31 42.99c4.14 13.5 4.89 27.84 2.61 43.2z" />
							<g id="&lt;Group&gt;">
								<g id="&lt;Group&gt;">
									<path id="&lt;Path&gt;" class="s19" d="m546.72 691.84c13.38-7.65 27.27-11.1 46.74-3.99" />
									<path id="&lt;Path&gt;" class="s19" d="m638.34 691.3c11.46-8.55 28.44-9.42 37.29 0" />
									<path id="&lt;Path&gt;" class="s20" d="m624.51 734.92c1.17 6.06 0.54 19.47-2.34 25.5" />
									<path id="&lt;Path&gt;" class="s21" d="m579.3 721.6c3.05 0 5.52 3.9 5.52 8.7c0 4.8-2.47 8.7-5.52 8.7c-3.05 0-5.52-3.9-5.52-8.7c0-4.8 2.47-8.7 5.52-8.7z" />
									<path id="&lt;Path&gt;" class="s21" d="m651.45 717.55c3.05 0 5.52 3.9 5.52 8.7c0 4.8-2.47 8.7-5.52 8.7c-3.05 0-5.52-3.9-5.52-8.7c0-4.8 2.47-8.7 5.52-8.7z" />
								</g>
								<g id="&lt;Group&gt;">
									<path id="&lt;Path&gt;" class="s22" d="m617.67 772.27c-0.72 1.4-1.77 3.05-3.15 4.95c-3.24 4.35-8.76 10.35-16.29 12.69h-0.03c-3.18 1.02-6.63 1.38-10.47 0.69c-11.28-2.01-14.25-12.42-14.79-20.43c-0.12-1.56-0.12-3-0.09-4.32c0.04-2.16 0.18-3.96 0.42-5.4c11.98 6.6 26.78 10.54 44.4 11.82z" />
									<path id="&lt;Path&gt;" class="s4" d="m617.67 772.27c-0.72 1.4-1.77 3.05-3.15 4.95c-9.18-0.12-27.96-4.83-41.67-11.37c0.04-2.16 0.18-3.96 0.42-5.4c11.98 6.6 26.78 10.54 44.4 11.82z" />
									<path id="&lt;Path&gt;" class="s23" d="m598.2 789.88c-3.18 1.02-6.63 1.38-10.47 0.69c-11.28-2.01-14.25-12.42-14.79-20.43c5.46 0.66 10.74 2.76 15.12 6.09c4.59 3.51 8.1 8.28 10.14 13.65z" />
								</g>
							</g>
							<g id="&lt;Group&gt;">
								<path id="&lt;Path&gt;" class="s24" d="m479.07 675.64c3.58-30.24 9.04-55.07 16.38-74.49c11.04-29.13 41.55-56.7 66.03-66.63c23.76-9.66 53.37-8.85 72.99-3.81c19.92 5.12 34.93 16.59 45.03 34.41c-19.42-20.82-44.64-30.68-75.66-29.58c-38.61 1.35-78.42 21.3-97.95 67.95c-10.38 24.78-15.36 49.64-14.94 74.58l-11.88-2.43z" />
								<g id="&lt;Group&gt;">
									<path id="&lt;Path&gt;" class="s17" d="m478.81 666.15c19.92-2.07 38.62 20.72 41.76 50.91c3.14 30.19-10.47 56.34-30.39 58.41c-19.92 2.07-38.62-20.72-41.76-50.91c-3.14-30.19 10.47-56.34 30.39-58.41z" />
									<path id="&lt;Path&gt;" class="s24" d="m468.69 683.83c12.86-1.93 26.05 14.84 29.45 37.47c3.4 22.63-4.27 42.54-17.13 44.47c-12.86 1.93-26.04-14.84-29.44-37.47c-3.4-22.63 4.27-42.54 17.13-44.47z" />
								</g>
								<g id="&lt;Group&gt;">
									<path id="&lt;Path&gt;" class="s25" d="m604.14 794.74c10.67 0 19.32 5.39 19.32 12.03c0 6.64-8.65 12.03-19.32 12.03c-10.67 0-19.32-5.39-19.32-12.03c0-6.64 8.65-12.03 19.32-12.03z" />
									<path id="&lt;Path&gt;" class="s26" d="m507.09 766.54c18.92 24.32 44.83 37.73 77.73 40.23" />
								</g>
							</g>
						</g>
						<g id="&lt;Group&gt;">
							<g id="&lt;Group&gt;">
								<g id="&lt;Group&gt;">
									<g id="&lt;Group&gt;">
										<path id="&lt;Path&gt;" class="s10" d="m625.32 1126.09l-1.86 47.97c-115.66 34.66-183.04 46.51-202.14 35.55c-13.98-8.04-27.03-52.26-36.78-95.43c-6.8-30.24-12.38-60.08-16.74-89.52l101.7-19.92c0.04 41.34 1.21 73.96 3.51 97.86c1.23 13.35 3 23.07 5.37 24.66c5.98 3.94 54.96 3.55 146.94-1.17z" />
										<path id="&lt;Path&gt;" class="s7" d="m473.01 1102.54c-18.48 6-54.15 15.27-88.47 11.61c-6.8-30.24-12.38-60.08-16.74-89.52l101.7-19.92c0-0.03 0.06 61.98 3.51 97.83z" />
									</g>
									<g id="&lt;Group&gt;">
										<path id="&lt;Path&gt;" class="s10" d="m620.37 1126.57c25.8-5.52 69.48-18.78 87.6-23.34c12.87-3.24 46.38 14.1 55.23 30.45c3.87 7.14 7.53 47.58-5.88 43.41c-6.72-2.1-5.61-19.44-7.71-26.52c-1.71-5.76-7.17-11.34-15.48-16.14c5.55 13.83 5.34 25.89 4.74 40.83c-0.12 3.3-0.33 6.75-1.92 9.6c-1.62 2.85-5.1 4.89-8.1 3.63c-3.06-1.26-4.11-5.07-4.8-8.4c-2.37-11.52-4.77-23.04-5.73-36.06c0.24 12.81-0.03 25.65-0.84 38.43c-0.6 9.78-5.46 15.15-11.43 13.44c-2.67-0.75-3.75-3.21-4.89-6.45c-1.8 6.27-6.3 13.2-12.12 10.56c-3.54-1.59-5.73-14.37-5.1-27.51c-11.16 6.93-23.76 9.87-38.28 10.53c-13.02 0.6-26.34-1.83-34.17-10.68c0.78-13.83 5.34-34.29 8.88-45.78z" />
										<path id="&lt;Path&gt;" class="s27" d="m701.43 1187.47c0.87-10.38-0.03-20.91-2.67-30.93" />
									</g>
								</g>
								<path id="&lt;Path&gt;" class="s11" d="m484.53 1088.17c-28.53 4.02-95.55 3.81-128.94-10.17c-8.4-94.4-4.34-158.04 12.18-190.92c9.76-19.42 28.39-34.85 55.89-46.29c18.02 28.36 29.49 49.47 34.41 63.33c9.86 27.7 18.68 89.05 26.46 184.05z" />
							</g>
							<path id="&lt;Path&gt;" class="s28" d="m463.32 912.82c11.25 53.85 17.28 104.07 19.2 153.27" />
						</g>
					</g>
					<path id="&lt;Path&gt;" class="s15" d="m163.38 1215.76h1182.84v29.67h-1182.84v-29.67z" />
				</g>
			</g>
		</g>
	</g>
</svg>